<?xml version="1.0" encoding="UTF-8" standalone="no"?>
<!-- Created with Inkscape (http://www.inkscape.org/) -->

<svg
   width="400"
   height="120"
   viewBox="0 0 105.83333 31.75"
   version="1.1"
   id="svg18060"
   inkscape:version="1.2.2 (732a01da63, 2022-12-09)"
   sodipodi:docname="droneshop.svg"
   xmlns:inkscape="http://www.inkscape.org/namespaces/inkscape"
   xmlns:sodipodi="http://sodipodi.sourceforge.net/DTD/sodipodi-0.dtd"
   xmlns="http://www.w3.org/2000/svg"
   xmlns:svg="http://www.w3.org/2000/svg">
  <sodipodi:namedview
     id="namedview18062"
     pagecolor="#101010"
     bordercolor="#666666"
     borderopacity="1.0"
     inkscape:showpageshadow="2"
     inkscape:pageopacity="0"
     inkscape:pagecheckerboard="0"
     inkscape:deskcolor="#d1d1d1"
     inkscape:document-units="px"
     showgrid="false"
     inkscape:zoom="1.3059905"
     inkscape:cx="114.47251"
     inkscape:cy="-7.6570238"
     inkscape:window-width="1920"
     inkscape:window-height="1017"
     inkscape:window-x="3832"
     inkscape:window-y="-8"
     inkscape:window-maximized="1"
     inkscape:current-layer="layer1" />
  <defs
     id="defs18057" />
  <g
     inkscape:label="Layer 1"
     inkscape:groupmode="layer"
     id="layer1">
    <g
       id="g23906"
       transform="translate(-20.413729,-12.534746)">
      <path
         id="path22168"
         style="color:#000000;fill:#010101;stroke-linecap:square;stroke-linejoin:bevel;stroke-miterlimit:2;-inkscape-stroke:none;paint-order:stroke fill markers"
         d="m 6.2011718,2.1776448 c -2.5230139,0 -4.575948,2.053451 -4.575948,4.5764648 -1e-7,1.9435197 1.2181725,3.6078404 2.9310872,4.2700234 V 10.216947 C 3.2625222,9.6026157 2.3709145,8.2851653 2.3709147,6.7541096 c 0,-2.1203505 1.7099065,-3.8302571 3.8302571,-3.8302571 2.1203505,10e-8 3.8318072,1.7099066 3.8318072,3.8302571 0,1.5319146 -0.8934815,2.849985 -2.1890135,3.4638714 v 0.807186 C 9.5580035,10.363542 10.77712,8.6984371 10.77712,6.7541096 c 0,-2.5230137 -2.0529344,-4.5764647 -4.5759482,-4.5764648 z" />
      <path
         id="path23007"
         style="color:#000000;fill:#010101;stroke-width:0.710434;stroke-linecap:square;stroke-linejoin:bevel;stroke-miterlimit:2;-inkscape-stroke:none;paint-order:stroke fill markers"
         d="m 6.2011718,3.5026285 c -1.792436,0 -3.2509643,1.4590452 -3.2509643,3.2514811 -10e-8,1.192724 0.6458012,2.2372298 1.6061035,2.8029296 V 8.9245197 C 3.9019361,8.4278828 3.4804076,7.6415112 3.4804077,6.7541096 c 0,-1.5063701 1.214394,-2.7212809 2.7207641,-2.7212809 1.5063701,1e-7 2.7223144,1.2149108 2.7223144,2.7212809 0,0.8885879 -0.423252,1.6759531 -1.0795207,2.1724772 V 9.5585895 C 8.8054882,8.993192 9.4521361,7.9477493 9.4521361,6.7541096 c 0,-1.7924359 -1.4585283,-3.251481 -3.2509643,-3.2514811 z" />
      <path
         id="path23009"
         style="color:#000000;fill:#010101;stroke-width:0.26497;stroke-linecap:square;stroke-linejoin:bevel;stroke-miterlimit:2;-inkscape-stroke:none;paint-order:stroke fill markers"
         d="m 6.2009921,5.6041238 c -0.644556,0 -1.1735243,0.5057689 -1.2106139,1.141198 H 4.987208 V 15.184975 H 7.4131927 V 6.8476607 c 2.64e-4,-0.010383 3.967e-4,-0.020494 3.967e-4,-0.03094 0,-0.010445 -1.327e-4,-0.020953 -3.967e-4,-0.031336 v -0.040063 h -0.00159 C 7.3745165,6.1098927 6.845548,5.6041239 6.2009921,5.6041238 Z"
         sodipodi:nodetypes="scccccscccs" />
    </g>
    <g
       id="g23914"
       transform="translate(-19.912339,4.9422709)">
      <path
         id="path23908"
         style="color:#000000;fill:#010101;stroke-linecap:square;stroke-linejoin:bevel;stroke-miterlimit:2;-inkscape-stroke:none;paint-order:stroke fill markers"
         d="m 6.2011718,2.1776448 c -2.5230139,0 -4.575948,2.053451 -4.575948,4.5764648 -1e-7,1.9435197 1.2181725,3.6078404 2.9310872,4.2700234 V 10.216947 C 3.2625222,9.6026157 2.3709145,8.2851653 2.3709147,6.7541096 c 0,-2.1203505 1.7099065,-3.8302571 3.8302571,-3.8302571 2.1203505,10e-8 3.8318072,1.7099066 3.8318072,3.8302571 0,1.5319146 -0.8934815,2.849985 -2.1890135,3.4638714 v 0.807186 C 9.5580035,10.363542 10.77712,8.6984371 10.77712,6.7541096 c 0,-2.5230137 -2.0529344,-4.5764647 -4.5759482,-4.5764648 z" />
      <path
         id="path23910"
         style="color:#000000;fill:#010101;stroke-width:0.710434;stroke-linecap:square;stroke-linejoin:bevel;stroke-miterlimit:2;-inkscape-stroke:none;paint-order:stroke fill markers"
         d="m 6.2011718,3.5026285 c -1.792436,0 -3.2509643,1.4590452 -3.2509643,3.2514811 -10e-8,1.192724 0.6458012,2.2372298 1.6061035,2.8029296 V 8.9245197 C 3.9019361,8.4278828 3.4804076,7.6415112 3.4804077,6.7541096 c 0,-1.5063701 1.214394,-2.7212809 2.7207641,-2.7212809 1.5063701,1e-7 2.7223144,1.2149108 2.7223144,2.7212809 0,0.8885879 -0.423252,1.6759531 -1.0795207,2.1724772 V 9.5585895 C 8.8054882,8.993192 9.4521361,7.9477493 9.4521361,6.7541096 c 0,-1.7924359 -1.4585283,-3.251481 -3.2509643,-3.2514811 z" />
      <path
         id="path23912"
         style="color:#000000;fill:#010101;stroke-width:0.26497;stroke-linecap:square;stroke-linejoin:bevel;stroke-miterlimit:2;-inkscape-stroke:none;paint-order:stroke fill markers"
         d="m 6.2009921,5.6041238 c -0.644556,0 -1.1735243,0.5057689 -1.2106139,1.141198 h -0.00317 V 18.336568 H 7.4131929 V 6.8476607 c 2.64e-4,-0.010383 3.967e-4,-0.020494 3.967e-4,-0.03094 0,-0.010445 -1.327e-4,-0.020953 -3.967e-4,-0.031336 v -0.040063 h -0.00159 C 7.3745165,6.1098927 6.845548,5.6041239 6.2009921,5.6041238 Z"
         sodipodi:nodetypes="scccccscccs" />
    </g>
    <g
       id="g24063"
       transform="translate(-0.24702851,-30.760181)">
      <path
         id="path24059"
         style="color:#000000;fill:#010101;stroke-linecap:square;stroke-linejoin:bevel;stroke-miterlimit:2;-inkscape-stroke:none;paint-order:stroke fill markers"
         d="m 4.355994,5.045454 c -1.7840402,1.7840402 -1.7836747,4.687693 3.654e-4,6.471733 1.3742759,1.374276 3.4125065,1.68975 5.0919542,0.946771 L 8.8775469,11.893191 c -1.3492447,0.480449 -2.9112846,0.179333 -3.9939044,-0.903287 -1.4993142,-1.4993142 -1.4993142,-3.9174872 0,-5.4168015 1.4993143,-1.4993142 3.9185834,-1.5004103 5.4178975,-0.0011 1.083227,1.0832272 1.383457,2.6470306 0.901461,3.9971933 l 0.570767,0.5707662 C 12.517936,8.4601189 12.202574,6.4206664 10.827727,5.0458193 9.0436872,3.2617792 6.1400343,3.2614139 4.355994,5.045454 Z" />
      <path
         id="path24061"
         style="color:#000000;fill:#010101;stroke-width:0.710434;stroke-linecap:square;stroke-linejoin:bevel;stroke-miterlimit:2;-inkscape-stroke:none;paint-order:stroke fill markers"
         d="m 5.292899,5.9823589 c -1.2674437,1.2674437 -1.2670782,3.3304797 3.654e-4,4.5979231 0.8433832,0.843383 2.0386108,1.12531 3.1176572,0.846284 L 7.9636628,10.979307 C 7.1497745,11.090845 6.2956602,10.832862 5.6681726,10.205374 4.6030081,9.1402095 4.6026426,7.4224316 5.6678071,6.3572671 6.7329717,5.2921026 8.4518458,5.2913718 9.5170103,6.3565363 10.145337,6.9848628 10.402804,7.8408984 10.289847,8.6560461 l 0.446894,0.4468934 C 11.016843,8.0232438 10.734853,6.8267551 9.8908222,5.9827244 8.6233786,4.7152808 6.5603427,4.7149153 5.292899,5.9823589 Z" />
    </g>
    <g
       id="g24069"
       transform="translate(-4.4803613,-30.760181)">
      <path
         id="path24065"
         style="color:#000000;fill:#010101;stroke-linecap:square;stroke-linejoin:bevel;stroke-miterlimit:2;-inkscape-stroke:none;paint-order:stroke fill markers"
         d="m 29.913191,5.0454542 c 1.78404,1.7840402 1.783675,4.687693 -3.65e-4,6.4717328 -1.374276,1.374276 -3.412507,1.689751 -5.091955,0.946771 l 0.570767,-0.570767 c 1.349245,0.480449 2.911285,0.179333 3.993904,-0.903287 1.499315,-1.499314 1.499315,-3.917487 0,-5.4168013 -1.499314,-1.4993141 -3.918583,-1.5004103 -5.417897,-0.0011 -1.083227,1.0832272 -1.383457,2.6470306 -0.901461,3.9971933 l -0.570767,0.570767 c -0.744168,-1.6798478 -0.428806,-3.7193003 0.946041,-5.0941474 1.78404,-1.7840401 4.687693,-1.7844054 6.471733,-3.653e-4 z" />
      <path
         id="path24067"
         style="color:#000000;fill:#010101;stroke-width:0.710434;stroke-linecap:square;stroke-linejoin:bevel;stroke-miterlimit:2;-inkscape-stroke:none;paint-order:stroke fill markers"
         d="m 28.976286,5.9823591 c 1.267444,1.2674437 1.267078,3.3304797 -3.65e-4,4.5979229 -0.843384,0.843384 -2.038611,1.12531 -3.117658,0.846284 l 0.447259,-0.447259 c 0.813888,0.111538 1.668003,-0.146445 2.29549,-0.773933 1.065165,-1.0651643 1.06553,-2.7829422 3.66e-4,-3.8481067 C 27.536213,5.2921029 25.817339,5.291372 24.752175,6.3565365 24.123848,6.984863 23.866381,7.8408987 23.979338,8.6560463 l -0.446894,0.4468934 c -0.280102,-1.0796957 0.0019,-2.2761844 0.845919,-3.1202151 1.267443,-1.2674436 3.330479,-1.267809 4.597923,-3.655e-4 z" />
    </g>
    <g
       id="g24075"
       transform="translate(-0.24702851,-34.993514)">
      <path
         id="path24071"
         style="color:#000000;fill:#010101;stroke-linecap:square;stroke-linejoin:bevel;stroke-miterlimit:2;-inkscape-stroke:none;paint-order:stroke fill markers"
         d="m 4.355994,29.887754 c -1.7840402,-1.78404 -1.7836747,-4.687693 3.655e-4,-6.471733 1.3742758,-1.374276 3.4125064,-1.68975 5.0919541,-0.946771 l -0.5707667,0.570767 c -1.3492447,-0.480449 -2.9112846,-0.179333 -3.9939043,0.903287 -1.4993143,1.499314 -1.4993143,3.917487 0,5.416802 1.4993142,1.499314 3.9185834,1.50041 5.4178974,0.0011 1.083227,-1.083227 1.383457,-2.647031 0.901461,-3.997193 l 0.570767,-0.570767 c 0.744168,1.679847 0.428806,3.7193 -0.946041,5.094147 -1.7840398,1.78404 -4.6876927,1.784405 -6.471733,3.65e-4 z" />
      <path
         id="path24073"
         style="color:#000000;fill:#010101;stroke-width:0.710434;stroke-linecap:square;stroke-linejoin:bevel;stroke-miterlimit:2;-inkscape-stroke:none;paint-order:stroke fill markers"
         d="M 5.292899,28.950849 C 4.0254553,27.683406 4.0258208,25.62037 5.2932644,24.352926 6.1366476,23.509543 7.3318752,23.227616 8.4109216,23.506642 l -0.4472588,0.447259 c -0.8138883,-0.111538 -1.6680026,0.146445 -2.2954902,0.773933 -1.0651645,1.065165 -1.06553,2.782943 -3.655e-4,3.848107 1.0651646,1.065165 2.7840387,1.065895 3.8492032,7.31e-4 0.6283267,-0.628327 0.8857937,-1.484362 0.7728367,-2.29951 l 0.446894,-0.446893 c 0.280102,1.079695 -0.0019,2.276184 -0.8459188,3.120215 -1.2674436,1.267443 -3.3304795,1.267809 -4.5979232,3.65e-4 z" />
    </g>
    <g
       id="g24081"
       transform="translate(-4.4803613,-34.993514)">
      <path
         id="path24077"
         style="color:#000000;fill:#010101;stroke-linecap:square;stroke-linejoin:bevel;stroke-miterlimit:2;-inkscape-stroke:none;paint-order:stroke fill markers"
         d="m 29.913191,29.887753 c 1.78404,-1.78404 1.783675,-4.687693 -3.65e-4,-6.471733 -1.374276,-1.374276 -3.412507,-1.68975 -5.091955,-0.946771 l 0.570767,0.570767 c 1.349245,-0.480449 2.911285,-0.179333 3.993904,0.903287 1.499315,1.499314 1.499315,3.917487 0,5.416802 -1.499314,1.499314 -3.918583,1.50041 -5.417897,0.0011 -1.083227,-1.083227 -1.383457,-2.647031 -0.901461,-3.997193 l -0.570767,-0.570767 c -0.744168,1.679847 -0.428807,3.7193 0.946041,5.094147 1.78404,1.78404 4.687693,1.784405 6.471733,3.65e-4 z" />
      <path
         id="path24079"
         style="color:#000000;fill:#010101;stroke-width:0.710434;stroke-linecap:square;stroke-linejoin:bevel;stroke-miterlimit:2;-inkscape-stroke:none;paint-order:stroke fill markers"
         d="m 28.976286,28.950848 c 1.267444,-1.267443 1.267078,-3.330479 -3.65e-4,-4.597923 -0.843384,-0.843383 -2.038611,-1.12531 -3.117658,-0.846284 l 0.447259,0.447259 c 0.813888,-0.111538 1.668003,0.146445 2.29549,0.773933 1.065165,1.065165 1.06553,2.782943 3.66e-4,3.848107 -1.065165,1.065165 -2.784039,1.065895 -3.849203,7.31e-4 -0.628327,-0.628327 -0.885794,-1.484362 -0.772837,-2.29951 l -0.446894,-0.446893 c -0.280102,1.079695 0.0019,2.276184 0.845919,3.120215 1.267443,1.267443 3.330479,1.267809 4.597923,3.65e-4 z" />
    </g>
    <g
       id="g24093"
       transform="matrix(1.1738624,0,0,1.1738624,-5.3427571,-35.913634)">
      <path
         id="path24083"
         style="color:#000000;fill:#010101;stroke-width:0.183457;stroke-linecap:square;stroke-linejoin:bevel;stroke-miterlimit:2;-inkscape-stroke:none;paint-order:stroke fill markers"
         d="m 9.9645236,10.544198 c -0.3155613,0.315561 -0.3269192,0.822147 -0.033984,1.151398 l -0.00156,0.0016 5.6748334,5.674834 1.187715,-1.187716 -5.624731,-5.624731 c -0.005,-0.0052 -0.0098,-0.01023 -0.01495,-0.01534 -0.0051,-0.0051 -0.01032,-0.0102 -0.01554,-0.01515 l -0.01961,-0.01961 -7.78e-4,7.78e-4 c -0.329247,-0.292938 -0.835834,-0.281579 -1.1513948,0.03398 z"
         sodipodi:nodetypes="scccccscccs" />
      <path
         id="path24085"
         style="color:#000000;fill:#010101;stroke-width:0.183457;stroke-linecap:square;stroke-linejoin:bevel;stroke-miterlimit:2;-inkscape-stroke:none;paint-order:stroke fill markers"
         d="m 24.304661,10.544198 c 0.315562,0.315561 0.32692,0.822147 0.03399,1.151398 l 0.0015,0.0015 -5.674833,5.674834 -1.187709,-1.187709 5.624731,-5.624731 c 0.005,-0.0052 0.0098,-0.01023 0.01495,-0.01534 0.0051,-0.0051 0.01032,-0.0102 0.01554,-0.01515 l 0.01961,-0.01961 7.78e-4,7.77e-4 c 0.329248,-0.292936 0.835834,-0.281578 1.151395,0.03398 z"
         sodipodi:nodetypes="scccccscccs" />
      <path
         id="path24087"
         style="color:#000000;fill:#010101;stroke-width:0.183457;stroke-linecap:square;stroke-linejoin:bevel;stroke-miterlimit:2;-inkscape-stroke:none;paint-order:stroke fill markers"
         d="M 9.9645236,24.389011 C 9.6489623,24.073449 9.6376044,23.566864 9.9305391,23.237612 l -0.00156,-0.0016 5.6748339,-5.674834 1.187715,1.187715 -5.624731,5.624731 c -0.005,0.0052 -0.0098,0.01023 -0.01495,0.01534 -0.0051,0.0051 -0.01032,0.01019 -0.01554,0.01515 l -0.01961,0.01962 -7.78e-4,-7.77e-4 c -0.329247,0.292937 -0.835834,0.281579 -1.1513953,-0.03398 z"
         sodipodi:nodetypes="scccccscccs" />
      <path
         id="path24089"
         style="color:#000000;fill:#010101;stroke-width:0.183457;stroke-linecap:square;stroke-linejoin:bevel;stroke-miterlimit:2;-inkscape-stroke:none;paint-order:stroke fill markers"
         d="m 24.304661,24.38901 c 0.315562,-0.315562 0.32692,-0.822147 0.03399,-1.151399 l 0.0015,-0.0015 -5.674834,-5.674834 -1.187708,1.187708 5.624731,5.624731 c 0.005,0.0052 0.0098,0.01023 0.01495,0.01534 0.0051,0.0051 0.01032,0.01019 0.01554,0.01515 l 0.01961,0.01962 7.78e-4,-7.78e-4 c 0.329248,0.292937 0.835834,0.281579 1.151395,-0.03398 z"
         sodipodi:nodetypes="scccccscccs" />
      <rect
         style="fill:#010101;fill-opacity:1;stroke:none;stroke-width:0.388419;stroke-linecap:square;stroke-linejoin:bevel;stroke-miterlimit:2;stroke-dasharray:none;stroke-opacity:1;paint-order:stroke fill markers"
         id="rect24091"
         width="11.437289"
         height="3.6368637"
         x="11.747959"
         y="-18.953024"
         rx="0.57973588"
         ry="0.57973588"
         transform="rotate(90)" />
    </g>
    <path
       id="path23916"
       style="color:#000000;fill:#ffffff;fill-opacity:1;stroke-width:1.08703;stroke-linecap:square;stroke-linejoin:bevel;stroke-miterlimit:2;-inkscape-stroke:none;paint-order:stroke fill markers"
       d="M 9.9887296,3.2195066 C 8.7148137,3.2194075 7.4407733,3.7041961 6.4711205,4.6738487 4.5318152,6.613154 4.5323771,9.7691989 6.4716823,11.708504 c 1.4938792,1.493881 3.7097647,1.836745 5.5353757,1.029106 l -0.620722,-0.62016 c -1.4666694,0.522264 -3.1648399,0.19492 -4.3416801,-0.981919 -1.6297995,-1.6297986 -1.6297995,-4.2583472 0,-5.8881468 1.6297998,-1.6297997 4.2600331,-1.6314807 5.8898321,-0.00168 1.1775,1.1775005 1.503618,2.8779449 0.979672,4.3456118 l 0.620722,0.620162 C 15.343816,8.3854313 15.000838,6.1683487 13.506338,4.6738487 12.536688,3.7041961 11.262644,3.2196059 9.9887296,3.2195066 Z m 16.1449364,0 c -1.273915,9.93e-5 -2.547955,0.4846895 -3.517608,1.4543421 -1.4945,1.4945 -1.837477,3.7115783 -1.028544,5.5376213 l 0.620721,-0.620159 c -0.523944,-1.4676662 -0.197827,-3.1681117 0.979672,-4.3456121 1.6298,-1.6297954 4.259473,-1.6281142 5.889272,0.00168 1.6298,1.6297996 1.6298,4.2583487 0,5.8881471 -1.176841,1.176839 -2.874448,1.504183 -4.341118,0.981921 l -0.620722,0.62016 c 1.82561,0.807639 4.041496,0.464772 5.535375,-1.029106 C 31.590019,9.7692 31.590581,6.6131511 29.651275,4.6738459 28.681624,3.7041961 27.407582,3.2194075 26.133666,3.2195066 Z M 9.9887296,4.6586817 C 9.0836467,4.6585824 8.178428,5.0034065 7.4895532,5.6922813 6.1118039,7.0700306 6.1123656,9.3123226 7.4901149,10.690072 8.4068978,11.606855 9.7061298,11.913511 10.879086,11.6102 L 10.393181,11.123735 C 9.5084607,11.24498 8.5800353,10.964909 7.8979374,10.282811 6.7400716,9.124946 6.7395097,7.2574077 7.8973756,6.099542 9.0552414,4.9416763 10.923902,4.9411144 12.081768,6.0989803 c 0.68301,0.6830096 0.962588,1.6130868 0.8398,2.4991765 l 0.485906,0.4859039 C 13.711952,7.9103987 13.405392,6.609768 12.487906,5.6922813 11.799031,5.0034065 10.893812,4.658781 9.9887296,4.6586817 Z m 16.1449364,0 c -0.905082,9.93e-5 -1.810301,0.3447248 -2.499175,1.0335996 -0.917474,0.9174867 -1.224046,2.2181174 -0.919567,3.3917794 l 0.485905,-0.4859039 c -0.122788,-0.8860904 0.156789,-1.8161669 0.839799,-2.4991765 1.157864,-1.1578659 3.026526,-1.157304 4.184392,5.617e-4 1.157867,1.1578657 1.157305,3.025404 -5.6e-4,4.183269 -0.682097,0.682098 -1.610524,0.962169 -2.495245,0.840924 L 25.243312,11.6102 c 1.172956,0.303311 2.472186,-0.0033 3.388969,-0.920128 1.37775,-1.3777494 1.378313,-3.6200414 5.63e-4,-4.9977907 C 27.943968,5.0034066 27.03875,4.6585824 26.133666,4.6586817 Z M 9.6398897,6.7286896 C 9.3754363,6.7359166 9.1132076,6.8402477 8.911876,7.0415782 8.5092123,7.4442414 8.4948299,8.0909555 8.8686217,8.5110866 l -0.00225,0.00175 6.8745613,6.8745604 v 0.97518 l -6.8745613,6.873997 0.00225,0.0023 c -0.373702,0.420032 -0.3591269,1.066263 0.043253,1.468947 0.4026638,0.402663 1.0493826,0.41761 1.4695083,0.04382 l 5.62e-4,5.6e-4 0.02528,-0.02472 c 0.0067,-0.0065 0.01314,-0.01313 0.01966,-0.01966 0.0066,-0.0066 0.01269,-0.01248 0.0191,-0.0191 l 5.294951,-5.294952 v 3.038447 c 0,0.409825 0.329985,0.739809 0.73981,0.739809 h 3.160905 c 0.409826,0 0.73981,-0.329984 0.73981,-0.739809 v -3.038447 l 5.294951,5.294952 c 0.0065,0.0067 0.01253,0.01313 0.0191,0.01966 0.0066,0.0066 0.01302,0.01277 0.01966,0.0191 l 0.02473,0.02528 0.0012,-0.0012 c 0.420128,0.373794 1.066846,0.359409 1.469509,-0.04326 0.402665,-0.402665 0.41704,-1.049376 0.04326,-1.469509 l 0.0018,-0.0018 -6.873999,-6.87456 v -0.97518 l 6.873999,-6.8745607 -0.0018,-0.00175 C 27.627564,8.0909971 27.61319,7.4442831 27.210524,7.0416196 26.80786,6.63896 26.161144,6.6245724 25.741015,6.9983654 l -0.0012,-0.00112 -0.02473,0.025277 c -0.0067,0.00631 -0.01314,0.012587 -0.01966,0.019099 -0.0066,0.00652 -0.01268,0.013031 -0.0191,0.019661 L 20.381461,12.356208 V 9.3177606 c 0,-0.4098246 -0.329984,-0.7398104 -0.73981,-0.7398104 h -3.160905 c -0.409825,0 -0.73981,0.3299858 -0.73981,0.7398104 V 12.356208 L 10.445985,7.0612389 c -0.0064,-0.00663 -0.01252,-0.013141 -0.0191,-0.019661 -0.0065,-0.00652 -0.013,-0.012782 -0.01966,-0.019098 l -0.02528,-0.025277 -5.62e-4,0.00112 C 10.171321,6.8114147 9.9043428,6.7214607 9.6398897,6.7286896 Z M 10.03086,18.586998 c -1.2878067,-0.01088 -2.5788196,0.473984 -3.5591777,1.454341 -1.9393052,1.939305 -1.9398671,5.095352 -5.618e-4,7.034656 1.9393055,1.939305 5.0959135,1.939305 7.0352175,0 1.4945,-1.494499 1.837478,-3.711576 1.028544,-5.537621 l -0.620722,0.620159 c 0.523946,1.467667 0.197828,3.167551 -0.979672,4.34505 -1.629799,1.629796 -4.2600325,1.628677 -5.8898321,-0.0012 -1.6297996,-1.629802 -1.6297996,-4.258348 0,-5.888148 1.1768402,-1.176845 2.8750107,-1.504187 4.3416801,-0.981925 l 0.620722,-0.620135 C 11.379505,18.734608 10.705425,18.592697 10.03086,18.586998 Z m 16.060677,0 c -0.674566,0.0057 -1.348644,0.14761 -1.976198,0.425237 l 0.620722,0.620157 c 1.46667,-0.522262 3.164277,-0.194919 4.341118,0.981921 1.6298,1.6298 1.6298,4.258346 0,5.888147 -1.629799,1.6298 -4.259472,1.630919 -5.889272,0.0012 -1.177499,-1.177497 -1.503616,-2.877382 -0.979672,-4.34505 l -0.620721,-0.62018 c -0.808933,1.826042 -0.465957,4.043121 1.028544,5.537621 1.939305,1.939303 5.095912,1.939303 7.035217,0 1.939306,-1.939306 1.938744,-5.095351 -5.61e-4,-7.034657 C 28.670357,19.061 27.379343,18.576136 26.091537,18.587017 Z M 9.9836738,20.026734 c -0.9032285,0.0013 -1.8059718,0.345451 -2.4935589,1.033037 -1.3777493,1.377752 -1.378311,3.620044 -5.617e-4,4.997792 1.3777493,1.377749 3.6206028,1.377748 4.9983528,0 0.917474,-0.917488 1.224046,-2.218118 0.919568,-3.391778 l -0.485906,0.485341 c 0.122788,0.88609 -0.15679,1.816728 -0.8398,2.499739 -1.157866,1.157864 -3.0265266,1.157303 -4.1843924,-5.63e-4 -1.1578659,-1.157864 -1.157304,-3.025402 5.618e-4,-4.183269 0.6820979,-0.682098 1.6105233,-0.962167 2.4952436,-0.840924 l 0.485905,-0.486465 c -0.29324,-0.07583 -0.594336,-0.113318 -0.8954122,-0.112907 z m 16.1550482,0 c -0.301075,-4.03e-4 -0.602173,0.03708 -0.89541,0.112906 l 0.485903,0.486466 c 0.884721,-0.121245 1.813148,0.158826 2.495245,0.840924 1.157865,1.157866 1.158427,3.025405 5.6e-4,4.183269 -1.157866,1.157866 -3.026528,1.158427 -4.184392,5.63e-4 -0.68301,-0.683011 -0.962587,-1.61365 -0.839799,-2.499739 l -0.485905,-0.485342 c -0.304479,1.17366 0.002,2.474291 0.919567,3.391779 1.377748,1.377748 3.620602,1.377749 4.998353,0 1.37775,-1.377748 1.377187,-3.620041 -5.63e-4,-4.997792 -0.687586,-0.687587 -1.590329,-1.031829 -2.493559,-1.033037 z" />
    <path
       id="path24192"
       style="font-stretch:condensed;font-size:9.0396px;line-height:1.25;font-family:Roboto;-inkscape-font-specification:'Roboto, Condensed';fill:#ffffff;fill-opacity:0.611594;stroke-width:0.239139"
       d="M 37.640596 11.481986 L 37.640596 14.246675 C 37.50359 14.04428 37.340128 13.89004 37.150187 13.784171 C 36.960246 13.675189 36.745543 13.620874 36.505781 13.620874 C 35.970211 13.620874 35.554638 13.865299 35.258829 14.354162 C 34.963019 14.843027 34.814929 15.492264 34.814929 16.301847 L 34.814929 16.400032 C 34.814929 17.144227 34.961483 17.742224 35.254178 18.193721 C 35.549987 18.642106 35.964022 18.866032 36.49648 18.866032 C 36.758037 18.866032 36.990165 18.807105 37.192561 18.688781 C 37.394956 18.567344 37.566104 18.391068 37.706225 18.160648 L 37.80441 18.767846 L 38.588858 18.767846 L 38.588858 11.481986 L 37.640596 11.481986 z M 76.314204 11.481986 L 76.314204 18.767846 L 77.2666 18.767846 L 77.2666 11.481986 L 76.314204 11.481986 z M 78.485647 11.481986 L 78.485647 12.387874 L 79.438561 12.387874 L 79.438561 11.481986 L 78.485647 11.481986 z M 87.883523 11.481986 L 87.883523 12.387874 L 88.83592 12.387874 L 88.83592 11.481986 L 87.883523 11.481986 z M 99.868321 11.481986 L 99.868321 14.246675 C 99.731315 14.04428 99.567852 13.89004 99.377912 13.784171 C 99.187971 13.675189 98.973268 13.620874 98.733507 13.620874 C 98.197936 13.620874 97.781847 13.865299 97.486038 14.354162 C 97.190228 14.843027 97.042654 15.492264 97.042654 16.301847 L 97.042654 16.400032 C 97.042654 17.144227 97.188691 17.742224 97.481387 18.193721 C 97.777196 18.642106 98.191231 18.866032 98.723688 18.866032 C 98.985246 18.866032 99.217374 18.807105 99.41977 18.688781 C 99.622166 18.567344 99.793314 18.391068 99.933433 18.160648 L 100.03162 18.767846 L 100.81658 18.767846 L 100.81658 11.481986 L 99.868321 11.481986 z M 62.708316 11.967745 L 62.708316 20.029268 L 63.535139 20.029268 L 63.535139 11.967745 L 62.708316 11.967745 z M 90.260639 12.458154 L 90.260639 13.714408 L 89.59298 13.714408 L 89.59298 14.391369 L 90.260639 14.391369 L 90.260639 17.399454 C 90.260639 17.907001 90.362101 18.279018 90.564496 18.515665 C 90.766892 18.749198 91.050261 18.866032 91.414574 18.866032 C 91.532898 18.866032 91.64614 18.8522 91.755121 18.824174 C 91.867218 18.799274 91.968679 18.764938 92.058979 18.721338 L 91.960794 18.067631 C 91.898518 18.086317 91.844203 18.100149 91.797496 18.109489 C 91.750789 18.118829 91.700568 18.123441 91.647634 18.123441 C 91.516855 18.123441 91.411299 18.069126 91.330341 17.960144 C 91.252496 17.848048 91.213552 17.661012 91.213552 17.399454 L 91.213552 14.391369 L 92.002652 14.391369 L 92.002652 13.714408 L 91.213552 13.714408 L 91.213552 12.458154 L 90.260639 12.458154 z M 41.671358 13.620874 C 41.444051 13.620874 41.243698 13.695688 41.069327 13.84515 C 40.894955 13.991497 40.751476 14.196979 40.639379 14.461649 L 40.57375 13.714408 L 39.700418 13.714408 L 39.700418 18.767846 L 40.653332 18.767846 L 40.653332 15.167033 C 40.724949 14.949068 40.826411 14.780995 40.957189 14.662671 C 41.091082 14.541233 41.257619 14.480253 41.4569 14.480253 L 41.867728 14.503507 L 41.975215 13.677201 C 41.934742 13.661634 41.888112 13.648817 41.835172 13.639477 C 41.785349 13.627017 41.730518 13.620874 41.671358 13.620874 z M 44.352331 13.620874 C 43.732688 13.620874 43.245893 13.860687 42.890921 14.34021 C 42.53595 14.819731 42.358137 15.434636 42.358137 16.185058 L 42.358137 16.311149 C 42.358137 17.064685 42.53595 17.67959 42.890921 18.155997 C 43.245893 18.629293 43.73628 18.866032 44.362149 18.866032 C 44.978679 18.866032 45.464454 18.629293 45.819425 18.155997 C 46.174396 17.67959 46.351692 17.064685 46.351692 16.311149 L 46.351692 16.185058 C 46.351692 15.434636 46.172343 14.819731 45.814257 14.34021 C 45.459286 13.860687 44.971973 13.620874 44.352331 13.620874 z M 49.457446 13.620874 C 49.180318 13.620874 48.932819 13.695688 48.714855 13.84515 C 48.49689 13.991497 48.31652 14.198516 48.173286 14.4663 L 48.116959 13.714408 L 47.248278 13.714408 L 47.248278 18.767846 L 48.201191 18.767846 L 48.201191 14.998567 C 48.294605 14.799286 48.419123 14.644026 48.574812 14.531929 C 48.730501 14.416719 48.917536 14.358813 49.135501 14.358813 C 49.403286 14.358813 49.602618 14.4572 49.733398 14.653369 C 49.86729 14.849537 49.933902 15.185685 49.933902 15.662093 L 49.933902 18.767846 L 50.882165 18.767846 L 50.882165 15.657442 C 50.882165 14.959955 50.75611 14.445994 50.503893 14.115934 C 50.25479 13.785873 49.90583 13.620874 49.457446 13.620874 z M 53.703181 13.620874 C 53.130246 13.620874 52.666506 13.85915 52.311535 14.335559 C 51.956564 14.808854 51.778751 15.416073 51.778751 16.157153 L 51.778751 16.376778 C 51.778751 17.114744 51.956564 17.713761 52.311535 18.174601 C 52.66962 18.63544 53.163081 18.866032 53.792065 18.866032 C 54.143922 18.866032 54.457013 18.807105 54.731025 18.688781 C 55.008152 18.570458 55.23054 18.423903 55.398685 18.249532 L 55.090693 17.660937 C 54.925663 17.81974 54.744776 17.941184 54.548608 18.025256 C 54.35244 18.106215 54.121849 18.146696 53.857177 18.146696 C 53.474181 18.146696 53.189276 17.986308 53.002449 17.665588 C 52.818736 17.344869 52.727013 16.926222 52.727013 16.409334 L 55.468965 16.409334 L 55.468965 15.877067 C 55.468965 15.188921 55.317799 14.640628 55.015762 14.232723 C 54.716839 13.824817 54.279231 13.620874 53.703181 13.620874 z M 57.907059 13.620874 C 57.40574 13.620874 56.997853 13.757688 56.683361 14.031701 C 56.371983 14.305714 56.216206 14.637767 56.216206 15.02699 C 56.216206 15.388188 56.345335 15.683854 56.603779 15.914274 C 56.862223 16.144694 57.251664 16.35786 57.771667 16.554028 C 58.142206 16.719059 58.39278 16.868688 58.523559 17.002579 C 58.654338 17.133359 58.719412 17.296821 58.719412 17.492989 C 58.719412 17.692271 58.648189 17.85727 58.504955 17.988049 C 58.364835 18.115715 58.168576 18.179252 57.916361 18.179252 C 57.657917 18.179252 57.44116 18.108029 57.266788 17.964795 C 57.095535 17.818447 57.003812 17.581707 56.991352 17.25476 L 56.108719 17.25476 L 56.099417 17.282666 C 56.083849 17.70614 56.238088 18.076619 56.561921 18.394226 C 56.888868 18.708717 57.335699 18.866032 57.902408 18.866032 C 58.425523 18.866032 58.847244 18.735365 59.167964 18.473807 C 59.491797 18.209137 59.653722 17.866324 59.653722 17.445963 C 59.653722 17.075423 59.519981 16.76746 59.252196 16.521472 C 58.987525 16.275483 58.590397 16.059243 58.061055 15.872416 C 57.678059 15.698045 57.427486 15.556102 57.309163 15.447119 C 57.193953 15.335023 57.136046 15.18232 57.136046 14.989266 C 57.136046 14.808667 57.203175 14.651352 57.337068 14.51746 C 57.474074 14.380453 57.664184 14.312304 57.907059 14.312304 C 58.149934 14.312304 58.341064 14.399415 58.481184 14.573787 C 58.624418 14.745045 58.696158 14.950525 58.696158 15.190287 L 59.611864 15.190287 L 59.621166 15.162382 C 59.633621 14.735794 59.480919 14.373 59.163313 14.074076 C 58.845708 13.77204 58.427061 13.620874 57.907059 13.620874 z M 73.745368 13.620874 C 73.468242 13.620874 73.220743 13.695688 73.002778 13.84515 C 72.784814 13.991497 72.603927 14.198516 72.460692 14.4663 L 72.404882 13.714408 L 71.535684 13.714408 L 71.535684 18.767846 L 72.488597 18.767846 L 72.488597 14.998567 C 72.582011 14.799286 72.706528 14.644026 72.862218 14.531929 C 73.017907 14.416719 73.204942 14.358813 73.422907 14.358813 C 73.690692 14.358813 73.890024 14.4572 74.020804 14.653369 C 74.154696 14.849537 74.221825 15.185685 74.221825 15.662093 L 74.221825 18.767846 L 75.169571 18.767846 L 75.169571 15.657442 C 75.169571 14.959955 75.043515 14.445994 74.791299 14.115934 C 74.542197 13.785873 74.193753 13.620874 73.745368 13.620874 z M 82.806314 13.620874 C 82.519845 13.620874 82.267736 13.68954 82.049771 13.826546 C 81.83492 13.960439 81.657107 14.151569 81.516987 14.400671 L 81.465827 13.714408 L 80.592495 13.714408 L 80.592495 18.767846 L 81.545409 18.767846 L 81.545409 14.989266 C 81.626367 14.793098 81.738071 14.639375 81.881306 14.527278 C 82.02454 14.415183 82.199279 14.358813 82.404788 14.358813 C 82.660118 14.358813 82.854322 14.469497 82.988215 14.690576 C 83.122107 14.908541 83.189236 15.271335 83.189236 15.778882 L 83.189236 18.767846 L 84.137499 18.767846 L 84.137499 15.601115 C 84.137499 15.538837 84.135981 15.478374 84.132848 15.419214 C 84.129781 15.356936 84.126679 15.297493 84.123546 15.241447 C 84.192049 14.976775 84.299142 14.763609 84.44549 14.601692 C 84.594952 14.439776 84.778913 14.358813 84.996878 14.358813 C 85.255321 14.358813 85.450043 14.464886 85.580821 14.676623 C 85.7116 14.885246 85.776675 15.252652 85.776675 15.778882 L 85.776675 18.767846 L 86.729588 18.767846 L 86.729588 15.783532 C 86.729588 15.054907 86.603533 14.512763 86.351317 14.157792 C 86.102215 13.799707 85.758382 13.620874 85.319339 13.620874 C 85.017302 13.620874 84.753915 13.703373 84.529723 13.868404 C 84.308644 14.033434 84.131348 14.262488 83.997456 14.555184 C 83.8947 14.240691 83.740461 14.007026 83.534951 13.854451 C 83.329442 13.698762 83.086554 13.620874 82.806314 13.620874 z M 94.599909 13.620874 C 94.026973 13.620874 93.562718 13.85915 93.207746 14.335559 C 92.852775 14.808854 92.675479 15.416073 92.675479 16.157153 L 92.675479 16.376778 C 92.675479 17.114744 92.852775 17.713761 93.207746 18.174601 C 93.565831 18.63544 94.059292 18.866032 94.688276 18.866032 C 95.040133 18.866032 95.353224 18.807105 95.627236 18.688781 C 95.904364 18.570458 96.127268 18.423903 96.295413 18.249532 L 95.986904 17.660937 C 95.821874 17.81974 95.641503 17.941184 95.445335 18.025256 C 95.249167 18.106215 95.018576 18.146696 94.753905 18.146696 C 94.37091 18.146696 94.086004 17.986308 93.899177 17.665588 C 93.715463 17.344869 93.623741 16.926222 93.623741 16.409334 L 96.365176 16.409334 L 96.365176 15.877067 C 96.365176 15.188921 96.214011 14.640628 95.911974 14.232723 C 95.613051 13.824817 95.175958 13.620874 94.599909 13.620874 z M 66.814009 13.714408 L 66.814009 16.661515 C 66.814009 17.41505 66.944675 17.971029 67.206233 18.329113 C 67.467791 18.687199 67.830585 18.866032 68.294538 18.866032 C 68.574779 18.866032 68.820741 18.794292 69.032478 18.651058 C 69.244215 18.50471 69.418437 18.297692 69.555443 18.029907 L 69.648978 18.767846 L 70.457197 18.767846 L 70.457197 13.714408 L 69.504284 13.714408 L 69.504284 17.502291 C 69.41087 17.704686 69.281741 17.860463 69.11671 17.969446 C 68.954794 18.078427 68.756999 18.132743 68.523465 18.132743 C 68.268134 18.132743 68.078025 18.025133 67.953474 17.810282 C 67.828923 17.592318 67.766922 17.212615 67.766922 16.670817 L 67.766922 13.714408 L 66.814009 13.714408 z M 78.485647 13.714408 L 78.485647 18.767846 L 79.438561 18.767846 L 79.438561 13.714408 L 78.485647 13.714408 z M 87.883523 13.714408 L 87.883523 18.767846 L 88.83592 18.767846 L 88.83592 13.714408 L 87.883523 13.714408 z M 44.352331 14.349511 C 44.701074 14.349511 44.962925 14.523733 45.137296 14.872477 C 45.311668 15.218107 45.398779 15.655716 45.398779 16.185058 L 45.398779 16.311149 C 45.398779 16.84672 45.311668 17.287402 45.137296 17.633032 C 44.966038 17.975548 44.70778 18.146696 44.362149 18.146696 C 44.007178 18.146696 43.742254 17.975548 43.567883 17.633032 C 43.396624 17.290516 43.311051 16.849834 43.311051 16.311149 L 43.311051 16.185058 C 43.311051 15.655716 43.396624 15.218107 43.567883 14.872477 C 43.742254 14.523733 44.003587 14.349511 44.352331 14.349511 z M 53.703181 14.349511 C 53.986536 14.349511 54.19509 14.467881 54.328983 14.704529 C 54.465989 14.941176 54.534655 15.249655 54.534655 15.629537 L 54.534655 15.736507 L 52.745617 15.736507 C 52.786096 15.31926 52.887558 14.98465 53.049474 14.732434 C 53.211391 14.477103 53.429169 14.349511 53.703181 14.349511 z M 94.599909 14.349511 C 94.883263 14.349511 95.091818 14.467881 95.225711 14.704529 C 95.362716 14.941176 95.430866 15.249655 95.430866 15.629537 L 95.430866 15.736507 L 93.642345 15.736507 C 93.682823 15.31926 93.783769 14.98465 93.945685 14.732434 C 94.107603 14.477103 94.325896 14.349511 94.599909 14.349511 z M 36.74401 14.358813 C 36.949519 14.358813 37.126815 14.421331 37.276277 14.545882 C 37.425738 14.66732 37.547183 14.832319 37.640596 15.040942 L 37.640596 17.488338 C 37.547183 17.693848 37.425738 17.852699 37.276277 17.964795 C 37.129929 18.076891 36.951096 18.132743 36.739359 18.132743 C 36.40307 18.132743 36.155571 17.976966 35.996769 17.665588 C 35.837966 17.351097 35.75854 16.929376 35.75854 16.400032 L 35.75854 16.301847 C 35.75854 15.725798 35.837966 15.258984 35.996769 14.900899 C 36.158685 14.5397 36.407721 14.358813 36.74401 14.358813 z M 98.971735 14.358813 C 99.177245 14.358813 99.35454 14.421331 99.504002 14.545882 C 99.653463 14.66732 99.774907 14.832319 99.868321 15.040942 L 99.868321 17.488338 C 99.774907 17.693848 99.653463 17.852699 99.504002 17.964795 C 99.357654 18.076891 99.178305 18.132743 98.966567 18.132743 C 98.630279 18.132743 98.38278 17.976966 98.223977 17.665588 C 98.065175 17.351097 97.985749 16.929376 97.985749 16.400032 L 97.985749 16.301847 C 97.985749 15.725798 98.065175 15.258984 98.223977 14.900899 C 98.385894 14.5397 98.635447 14.358813 98.971735 14.358813 z " />
    <g
       id="g24190"
       transform="matrix(1.0581826,0,0,1.0581826,27.918002,-39.010971)"
       style="fill:#ffffff;fill-opacity:1">
      <path
         id="path24184"
         style="color:#000000;fill:#ffffff;fill-opacity:1;stroke-width:1.02726;stroke-linecap:square;stroke-linejoin:bevel;stroke-miterlimit:2;-inkscape-stroke:none;paint-order:stroke fill markers"
         d="M 9.2855835,3.9153598 C 8.081712,3.9152661 6.8777228,4.3733993 5.9613849,5.289737 c -1.8326755,1.8326755 -1.8321445,4.81519 5.309e-4,6.647865 1.4117405,1.411742 3.5057891,1.735755 5.2310212,0.972522 l -0.586592,-0.586061 c -1.3860272,0.493548 -2.9908263,0.184203 -4.1029597,-0.92793 -1.5401874,-1.5401862 -1.5401874,-4.024208 0,-5.5643955 1.5401877,-1.5401875 4.0258017,-1.5417761 5.5659887,-0.00159 1.112757,1.1127573 1.420944,2.7197053 0.925806,4.1066747 l 0.586592,0.5860628 C 14.346228,8.7972438 14.022109,6.7020642 12.609781,5.289737 11.693446,4.3733993 10.489454,3.9154536 9.2855835,3.9153598 Z m 15.2572315,0 c -1.203871,9.38e-5 -2.40786,0.4580395 -3.324198,1.3743772 -1.412327,1.4123272 -1.736446,3.5075027 -0.971991,5.233143 l 0.586592,-0.58606 c -0.495136,-1.3869688 -0.18695,-2.9939178 0.925806,-4.1066751 1.540188,-1.5401835 4.025272,-1.5385948 5.565459,0.00159 1.540188,1.5401875 1.540188,4.0242097 0,5.5643961 -1.112134,1.112133 -2.716401,1.421478 -4.102428,0.927931 l -0.586593,0.586061 c 1.725232,0.763234 3.819281,0.439219 5.231021,-0.972522 1.832675,-1.832673 1.833206,-4.8151912 5.3e-4,-6.6478666 C 26.950677,4.3733993 25.746686,3.9152661 24.542815,3.9153598 Z M 9.2855835,5.275404 c -0.8553183,-9.39e-5 -1.7107649,0.3257706 -2.3617629,0.9767686 -1.3019958,1.3019958 -1.301465,3.4209987 5.308e-4,4.7229944 0.866375,0.866375 2.0941706,1.15617 3.2026336,0.869536 L 9.6677968,11.384986 C 8.8317215,11.499564 7.9543442,11.234893 7.3097504,10.590299 6.2155481,9.4960974 6.2150171,7.7312429 7.3092195,6.6370407 8.4034218,5.5428385 10.169337,5.5423075 11.263539,6.6365099 c 0.645456,0.6454553 0.909662,1.5243936 0.793625,2.361763 l 0.459189,0.4591872 C 12.80409,8.3483301 12.514386,7.1192127 11.647346,6.2521726 10.996348,5.6011746 10.140901,5.2754978 9.2855835,5.275404 Z m 15.2572315,0 c -0.855318,9.38e-5 -1.710765,0.3257706 -2.361762,0.9767686 -0.867028,0.8670401 -1.156744,2.0961575 -0.869006,3.2052875 l 0.459188,-0.4591872 c -0.116036,-0.8373701 0.148168,-1.7163077 0.793624,-2.361763 1.094201,-1.0942024 2.860117,-1.0936714 3.95432,5.308e-4 1.094203,1.0942022 1.093672,2.8590567 -5.3e-4,3.9532583 -0.644593,0.644594 -1.521971,0.909265 -2.358047,0.794687 l -0.459187,0.459717 c 1.108463,0.286634 2.336257,-0.0031 3.202632,-0.869536 1.301996,-1.3019957 1.302528,-3.4209986 5.32e-4,-4.7229944 C 26.25358,5.6011747 25.398134,5.2753101 24.542815,5.275404 Z M 8.955924,7.2315956 C 8.7060112,7.2384252 8.4582008,7.3370198 8.2679391,7.5272804 7.8874153,7.9078038 7.8738237,8.5189593 8.2270631,8.9159901 l -0.00213,0.00165 6.4965739,6.4965729 v 0.921561 l -6.4965739,6.496041 0.00213,0.0022 c -0.3531546,0.396937 -0.3393809,1.007636 0.040875,1.388179 0.3805239,0.380523 0.9916838,0.394648 1.3887097,0.04141 l 5.311e-4,5.3e-4 0.02389,-0.02336 c 0.00629,-0.0061 0.012416,-0.01241 0.01858,-0.01858 0.00621,-0.0062 0.011987,-0.01179 0.018049,-0.01805 l 5.0038161,-5.003817 v 2.871383 c 0,0.387291 0.311842,0.699131 0.699133,0.699131 h 2.987107 c 0.387293,0 0.699133,-0.31184 0.699133,-0.699131 v -2.871383 l 5.003816,5.003817 c 0.0061,0.0063 0.01184,0.01241 0.01805,0.01858 0.0062,0.0062 0.0123,0.01207 0.01858,0.01805 l 0.02337,0.02389 0.0011,-0.0011 c 0.397028,0.353241 1.008187,0.339647 1.38871,-0.04088 0.380525,-0.380525 0.39411,-0.991677 0.04088,-1.38871 l 0.0017,-0.0017 -6.496043,-6.496573 V 15.41414 l 6.496043,-6.4965729 -0.0017,-0.00165 c 0.35318,-0.3969185 0.339596,-1.0080739 -0.04093,-1.3885975 -0.380524,-0.38052 -0.991681,-0.3941165 -1.38871,-0.040876 l -0.0011,-0.00106 -0.02337,0.023887 c -0.0063,0.00596 -0.01242,0.011895 -0.01858,0.018049 -0.0062,0.00616 -0.01198,0.012314 -0.01805,0.01858 L 19.106886,12.549693 V 9.6783103 c 0,-0.387291 -0.31184,-0.699133 -0.699133,-0.699133 h -2.987107 c -0.387291,0 -0.699133,0.311842 -0.699133,0.699133 V 12.549693 L 9.717697,7.5458601 C 9.711637,7.5395901 9.705864,7.5334421 9.699649,7.5272801 9.693479,7.5211201 9.687367,7.5152011 9.68107,7.5092321 l -0.02389,-0.023887 -5.311e-4,0.00106 C 9.458135,7.3097721 9.2058366,7.2247641 8.955924,7.2315956 Z M 9.3253973,18.437892 c -1.2169984,-0.01028 -2.4370269,0.447923 -3.3634815,1.374377 -1.8326754,1.832675 -1.8332064,4.815191 -5.309e-4,6.647866 1.8326757,1.832675 4.8157221,1.832675 6.6483961,0 1.412328,-1.412327 1.736447,-3.507501 0.971991,-5.233144 l -0.586592,0.586061 c 0.495138,1.386969 0.186951,2.993388 -0.925806,4.106144 -1.540187,1.540184 -4.0258012,1.539126 -5.5659887,-0.0011 -1.5401875,-1.54019 -1.5401875,-4.024209 0,-5.564397 1.1121334,-1.112138 2.7169325,-1.421482 4.1029597,-0.927935 l 0.586592,-0.586038 C 10.599889,18.577386 9.9628727,18.443278 9.3253973,18.437892 Z m 15.1776047,0 c -0.637476,0.0054 -1.274491,0.139494 -1.86754,0.401856 l 0.586593,0.586059 c 1.386027,-0.493546 2.990294,-0.184202 4.102428,0.927932 1.540188,1.540187 1.540188,4.024207 0,5.564396 -1.540187,1.540187 -4.025271,1.541245 -5.565459,0.0011 -1.112756,-1.112755 -1.420942,-2.719174 -0.925806,-4.106144 L 20.246626,21.22701 c -0.764455,1.72564 -0.440337,3.820816 0.971991,5.233143 1.832675,1.832674 4.815721,1.832674 6.648396,0 1.832676,-1.832676 1.832145,-4.81519 -5.3e-4,-6.647866 C 26.940029,18.885832 25.72,18.427628 24.503002,18.43791 Z M 9.2808057,19.798467 c -0.8535658,0.0012 -1.7066731,0.326457 -2.3564543,0.976237 -1.3019958,1.301998 -1.3025266,3.421001 -5.308e-4,4.722996 1.3019958,1.301995 3.4215294,1.301994 4.7235254,0 0.867028,-0.867042 1.156744,-2.096159 0.869007,-3.205287 l -0.459189,0.458656 c 0.116037,0.837369 -0.148169,1.716838 -0.793625,2.362294 -1.094202,1.094201 -2.8601172,1.093671 -3.9543195,-5.32e-4 -1.0942024,-1.0942 -1.0936714,-2.859055 5.309e-4,-3.953258 0.6445938,-0.644594 1.5219711,-0.909264 2.3580464,-0.794687 L 10.126985,19.905169 C 9.8498687,19.833506 9.5653278,19.798081 9.2808057,19.79847 Z m 15.2667873,0 c -0.284521,-3.81e-4 -0.569064,0.03504 -0.846178,0.106698 l 0.459187,0.459718 c 0.836076,-0.114578 1.713454,0.150093 2.358047,0.794687 1.094202,1.094203 1.094733,2.859058 5.3e-4,3.953258 -1.094203,1.094203 -2.860119,1.094733 -3.95432,5.32e-4 -0.645456,-0.645456 -0.90966,-1.524925 -0.793624,-2.362294 L 21.312047,22.29241 c -0.287738,1.109128 0.0019,2.338245 0.869006,3.205287 1.301995,1.301994 3.421529,1.301995 4.723526,0 1.301996,-1.301995 1.301464,-3.420999 -5.32e-4,-4.722996 -0.64978,-0.649781 -1.502887,-0.975096 -2.356454,-0.976237 z" />
      <text
         xml:space="preserve"
         style="font-style:normal;font-variant:normal;font-weight:normal;font-stretch:condensed;font-size:9.0396px;line-height:1.25;font-family:Roboto;-inkscape-font-specification:'Roboto, Condensed';font-variant-ligatures:normal;font-variant-caps:normal;font-variant-numeric:normal;font-variant-east-asian:normal;fill:#ffffff;fill-opacity:0.611594;stroke:none;stroke-width:0.22599"
         x="32.398182"
         y="18.608942"
         id="text24188"><tspan
           sodipodi:role="line"
           id="tspan24186"
           style="font-style:normal;font-variant:normal;font-weight:normal;font-stretch:condensed;font-size:9.0396px;font-family:Roboto;-inkscape-font-specification:'Roboto, Condensed';font-variant-ligatures:normal;font-variant-caps:normal;font-variant-numeric:normal;font-variant-east-asian:normal;fill:#ffffff;fill-opacity:0.611594;stroke-width:0.22599"
           x="32.398182"
           y="18.608942">drones | unlimited</tspan></text>
    </g>
  </g>
</svg>
